<?xml version="1.0" encoding="UTF-8" ?>
<!DOCTYPE svg PUBLIC "-//W3C//DTD SVG 1.1//EN" "http://www.w3.org/Graphics/SVG/1.1/DTD/svg11.dtd">
<svg width="226pt" height="268pt" viewBox="0 0 226 268" version="1.1" xmlns="http://www.w3.org/2000/svg">
<g id="#ffffffff">
</g>
<g id="#707173ff">
<path fill="#707173" opacity="1.00" d=" M 197.75 0.00 L 198.90 0.00 C 196.37 4.69 194.72 9.78 192.75 14.71 C 189.49 23.50 185.71 32.10 182.64 40.97 C 184.23 42.51 185.83 44.02 187.47 45.52 C 206.32 62.60 218.86 86.41 222.45 111.58 C 225.48 133.53 222.32 156.48 212.39 176.37 C 199.57 203.08 175.48 224.07 147.38 233.38 C 127.73 239.94 106.19 240.91 86.07 235.88 C 83.81 235.48 81.16 234.48 79.16 236.16 C 67.29 244.64 56.25 254.32 44.02 262.28 C 47.56 256.84 51.85 251.94 55.79 246.79 C 92.34 200.35 128.84 153.87 165.39 107.43 C 173.04 97.40 181.16 87.73 188.67 77.61 C 172.96 82.46 157.04 86.54 141.28 91.21 C 133.79 93.18 126.41 95.57 118.83 97.16 C 121.10 93.73 123.76 90.58 126.42 87.45 C 148.43 60.46 170.56 33.57 192.67 6.66 C 194.46 4.51 196.07 2.23 197.75 0.00 Z" />
</g>
<g id="#28a9e2ff">
<path fill="#28a9e2" opacity="1.00" d=" M 50.59 34.61 C 68.47 23.11 89.53 15.81 110.95 16.39 C 109.10 22.11 106.40 27.52 104.02 33.04 C 86.74 73.27 69.40 113.50 52.15 153.75 C 69.63 148.88 86.95 143.42 104.38 138.39 C 113.91 135.70 123.25 132.38 132.88 130.06 C 122.29 136.58 111.19 142.24 100.41 148.43 C 98.68 149.42 97.86 151.33 96.90 152.97 C 84.27 177.03 71.12 200.77 58.47 224.81 C 55.42 224.24 53.06 222.11 50.54 220.47 C 21.92 201.82 2.93 169.16 1.03 135.04 C -0.09 127.00 1.36 118.97 1.56 110.93 C 1.52 106.90 3.42 103.25 4.33 99.40 C 11.12 73.09 28.01 49.66 50.59 34.61 Z" />
</g>
</svg>
